<?xml version="1.0" standalone="no"?><!DOCTYPE svg PUBLIC "-//W3C//DTD SVG 1.1//EN" "http://www.w3.org/Graphics/SVG/1.1/DTD/svg11.dtd"><svg t="1619343304568" class="icon" viewBox="0 0 1024 1024" version="1.1" xmlns="http://www.w3.org/2000/svg" p-id="10669" xmlns:xlink="http://www.w3.org/1999/xlink" width="200" height="200"><defs><style type="text/css"></style></defs><path d="M873.03 439.38L514.05 148.21c-4.1-4.02-9.34-6.37-14.79-6.82-0.71-0.07-1.43-0.01-2.14-0.02-0.72 0-1.43-0.05-2.14 0.02-5.46 0.45-10.69 2.8-14.79 6.82l-359 291.17c-10.27 8.33-11.86 23.54-3.53 33.81 8.33 10.27 23.54 11.86 33.81 3.53l37.12-30.11v345.84c0 35.35 28.76 64.11 64.11 64.11h472.78c13.28 0 24.04-10.76 24.04-24.04s-10.76-24.04-24.04-24.04H252.71c-8.69 0-16.03-7.34-16.03-16.03V415.84c0-2.54-0.5-4.93-1.23-7.23L497.1 196.38l345.63 280.34c10.27 8.33 25.48 6.74 33.81-3.53 8.34-10.26 6.75-25.48-3.51-33.81z" fill="#707070" p-id="10670"></path><path d="M907.78 660.24c0-47.73-37.84-156.26-100.16-156.26S707.45 612.51 707.45 660.24c0 46.93 32.49 86.32 76.12 97.13v83.17c0 13.22 10.82 24.04 24.04 24.04s24.04-10.82 24.04-24.04v-83.17c43.65-10.82 76.13-50.2 76.13-97.13z m-100.16 52.08c-28.72 0-52.09-23.37-52.09-52.09 0-40.44 32.62-108.18 52.09-108.18s52.09 67.74 52.09 108.18c-0.01 28.73-23.37 52.09-52.09 52.09zM554.28 592.12H439.94a2.94 2.94 0 0 1-2.93-2.93V378.7a2.94 2.94 0 0 1 2.93-2.93h114.34a2.94 2.94 0 0 1 2.93 2.93v210.5c0 1.61-1.32 2.92-2.93 2.92z" fill="#707070" p-id="10671"></path></svg>