<?xml version="1.0" standalone="no"?><!DOCTYPE svg PUBLIC "-//W3C//DTD SVG 1.1//EN" "http://www.w3.org/Graphics/SVG/1.1/DTD/svg11.dtd"><svg t="1619343014602" class="icon" viewBox="0 0 1056 1024" version="1.1" xmlns="http://www.w3.org/2000/svg" p-id="9352" xmlns:xlink="http://www.w3.org/1999/xlink" width="206.25" height="200"><defs><style type="text/css"></style></defs><path d="M499.84 0v124.224L435.04 204.16l-85.12 105.056h340.512l-85.12-105.056-61.824-76.256V0H499.84zM31.808 1010.08H1041.28v-81.376h-106.688V469.984h-161.536v458.72h-66.08V350.24h-370.56v578.464H268.32V453.44L31.872 317.856v692.224z m579.872-521.952h51.2v-64.064h-51.2v64.064z m-77.184 0h51.2v-64.064h-51.2v64.064z m-155.936 0h51.232v-64.064h-51.2v64.064z m483.296 67.2h38.432v-48.064h-38.4v48.096z m-60.32 0h38.464v-48.064H801.6v48.096z m-587.52 12.48h30.944v-38.72h-30.976v38.72z m-49.76 0h30.976v-38.72h-30.976v38.72z m-99.36 0h30.944v-38.72H64.96v38.72z m546.784 32.512h51.2v-64.032h-51.2v64z m-77.184 0h51.2v-64.032h-51.2v64z m-76.8 0h51.2v-64.032h-51.2v64z m-79.136 0h51.232v-64.032h-51.2v64z m483.296 39.296h38.432v-48.064h-38.4v48.064z m-647.872-3.936h30.976v-38.72h-30.976v38.72z m-100.576 0h30.944v-38.72h-30.944v38.72z m498.272 79.904h51.2V651.52h-51.2v64z m-233.12 0h51.232V651.52h-51.2v64z m-214.304-10.24h30.976v-38.72h-30.976v38.72z m-50.848 0h30.944v-38.72h-30.944v38.72z m-48.512 0h30.944v-38.72H64.96v38.72z m736.64 20.8h38.464V678.08H801.6v48.096z m-587.52 47.04h30.944v-38.656h-30.976v38.688z m-100.608 0h30.944v-38.656h-30.944v38.688z m688.128 37.248h38.464v-48.032H801.6v48z m-267.04 17.376h51.2v-64.096h-51.2v64.096z m-155.936 0h51.232v-64.096h-51.2v64.096z" fill="#e6e6e6" p-id="9353"></path></svg>